<svg width="38" height="40" viewBox="0 0 38 40" fill="none" xmlns="http://www.w3.org/2000/svg">
<path d="M17.9975 0.00630873C14.7875 0.0450587 7.88626 0.572559 4.02626 4.11381C1.15501 6.95881 0.152511 11.1651 0.0350114 16.3663C-0.0624886 21.5488 -0.179989 31.2813 9.20126 33.9313V37.9676C9.20126 37.9676 9.14251 39.5826 10.21 39.9138C11.525 40.3301 12.2738 39.0876 13.5238 37.7526L15.855 35.1163C22.2738 35.6501 27.19 34.4201 27.7563 34.2376C29.0588 33.8213 36.395 32.8838 37.5938 23.1501C38.8238 13.0976 36.995 6.76381 33.6938 3.89881H33.6738C32.6775 2.98131 28.6738 0.0638087 19.7288 0.0313087C19.7288 0.0313087 19.065 -0.0124413 17.9975 0.00630873ZM18.1075 2.83256C19.0188 2.82631 19.5725 2.86506 19.5725 2.86506C27.1438 2.88506 30.7575 5.16381 31.61 5.93131C34.39 8.31381 35.8225 14.0238 34.7738 22.4163C33.7775 30.5538 27.8275 31.0688 26.7263 31.4201C26.2575 31.5701 21.9275 32.6376 16.4725 32.2863C16.4725 32.2863 12.41 37.1888 11.14 38.4513C10.9388 38.6726 10.7038 38.7376 10.5538 38.7051C10.3388 38.6526 10.2738 38.3863 10.2863 38.0213L10.325 31.3226C2.36876 29.1226 2.83751 20.8213 2.92251 16.4851C3.02001 12.1488 3.83376 8.60131 6.25626 6.19881C9.51751 3.25006 15.3775 2.85256 18.105 2.83256H18.1075ZM18.7075 7.16756C18.642 7.1669 18.5771 7.17921 18.5164 7.20377C18.4557 7.22834 18.4004 7.26467 18.3538 7.31069C18.3072 7.3567 18.2702 7.41148 18.2449 7.47187C18.2195 7.53227 18.2064 7.59707 18.2063 7.66256C18.2063 7.94256 18.4338 8.16381 18.7075 8.16381C19.9469 8.14024 21.1787 8.36227 22.3318 8.81709C23.485 9.27191 24.5367 9.95053 25.4263 10.8138C27.2425 12.5776 28.1275 14.9476 28.1613 18.0463C28.1613 18.3201 28.3825 18.5476 28.6625 18.5476V18.5276C28.7945 18.5279 28.9212 18.476 29.0151 18.3833C29.109 18.2906 29.1624 18.1645 29.1638 18.0326C29.2245 16.574 28.9879 15.1183 28.4685 13.754C27.9492 12.3897 27.1578 11.1453 26.1425 10.0963C24.1638 8.16256 21.6563 7.16631 18.7075 7.16631V7.16756ZM12.1188 8.31381C11.7649 8.26211 11.4041 8.33313 11.0963 8.51506H11.07C10.3553 8.93398 9.71153 9.46346 9.16251 10.0838C8.70626 10.6113 8.45876 11.1451 8.39376 11.6588C8.35501 11.9651 8.38126 12.2713 8.47251 12.5638L8.50501 12.5838C9.01876 14.0938 9.69001 15.5463 10.51 16.9138C11.5663 18.835 12.8662 20.6118 14.3775 22.2001L14.4225 22.2651L14.4938 22.3176L14.5388 22.3701L14.5913 22.4151C16.1853 23.9308 17.9664 25.2368 19.8913 26.3013C22.0913 27.4988 23.4263 28.0651 24.2275 28.3001V28.3126C24.4625 28.3838 24.6763 28.4163 24.8913 28.4163C25.5741 28.3663 26.2206 28.089 26.7275 27.6288C27.345 27.0797 27.8686 26.4332 28.2775 25.7151V25.7026C28.6613 24.9801 28.5313 24.2963 27.9775 23.8338C26.8685 22.8644 25.6693 22.0034 24.3963 21.2626C23.5438 20.8001 22.6775 21.0801 22.3263 21.5488L21.5775 22.4926C21.1938 22.9613 20.4963 22.8963 20.4963 22.8963L20.4763 22.9088C15.275 21.5801 13.8875 16.3138 13.8875 16.3138C13.8875 16.3138 13.8225 15.5976 14.3038 15.2326L15.2413 14.4776C15.69 14.1126 16.0025 13.2476 15.5213 12.3938C14.7855 11.119 13.9264 9.9195 12.9563 8.81256C12.7442 8.5516 12.4466 8.37405 12.1163 8.31131L12.1188 8.31381ZM19.5725 9.79881C18.9088 9.79881 18.9088 10.8013 19.5788 10.8013C20.4041 10.8147 21.2187 10.9906 21.9761 11.319C22.7334 11.6473 23.4186 12.1217 23.9925 12.7151C24.516 13.2926 24.9183 13.9693 25.1756 14.7051C25.4328 15.4409 25.5397 16.2209 25.49 16.9988C25.4923 17.1305 25.546 17.256 25.6397 17.3485C25.7334 17.441 25.8596 17.4932 25.9913 17.4938L26.0113 17.5201C26.1439 17.5191 26.2708 17.466 26.3646 17.3722C26.4584 17.2784 26.5115 17.1514 26.5125 17.0188C26.5575 15.0326 25.94 13.3663 24.7288 12.0313C23.5113 10.6963 21.8125 9.94756 19.6438 9.79881H19.5725ZM20.3938 12.4938C19.71 12.4738 19.6838 13.4963 20.3613 13.5163C22.0088 13.6013 22.8088 14.4338 22.9138 16.1463C22.916 16.2763 22.9691 16.4002 23.0616 16.4916C23.1542 16.5829 23.2788 16.6344 23.4088 16.6351H23.4288C23.4956 16.6322 23.5612 16.616 23.6217 16.5875C23.6823 16.5591 23.7365 16.5188 23.7813 16.4691C23.8261 16.4194 23.8606 16.3613 23.8827 16.2982C23.9048 16.235 23.9141 16.1681 23.91 16.1013C23.7925 13.8688 22.575 12.6113 20.4138 12.4951H20.3938V12.4938Z" fill="white"/>
</svg>
